<?xml version="1.0" encoding="utf-8"?>
<!-- Generator: Adobe Illustrator 16.0.0, SVG Export Plug-In . SVG Version: 6.00 Build 0)  -->
<!DOCTYPE svg PUBLIC "-//W3C//DTD SVG 1.1//EN" "http://www.w3.org/Graphics/SVG/1.1/DTD/svg11.dtd">
<svg version="1.1" id="Layer_1" xmlns="http://www.w3.org/2000/svg" xmlns:xlink="http://www.w3.org/1999/xlink" x="0px" y="0px"
	 width="283.465px" height="283.465px" viewBox="-32.475 -69.26 283.465 283.465"
	 enable-background="new -32.475 -69.26 283.465 283.465" xml:space="preserve">
<circle fill="#00CC66" cx="109.258" cy="72.472" r="141.732"/>
<g>
	<g>
		<polygon fill="#FFFFFF" points="170.219,13.714 112.781,131.23 121.971,131.23 179.41,13.714 		"/>
		<polygon fill="#FFFFFF" points="188.649,13.714 131.208,131.23 140.398,131.23 197.84,13.714 		"/>
		<circle fill="#FFFFFF" cx="79.116" cy="96.308" r="10.656"/>
		<path fill="#FFFFFF" d="M102.756,38.436c-5.876-0.343-10.918,4.138-11.26,10.013c-0.346,5.875,4.14,10.915,10.015,11.261
			c5.874,0.343,10.917-4.14,11.259-10.016C113.115,43.82,108.631,38.777,102.756,38.436z"/>
		<path fill="#FFFFFF" d="M78.115,13.714L20.675,131.23h82.867l57.44-117.516H78.115z M98.408,94.082
			c-1.028,0.814-1.66,2.027-1.74,3.337c-0.001,0,0,0.001-0.001,0.001c-0.083,1.303,0.393,2.585,1.309,3.52l5.002,3.323l-2.954,6.028
			l-5.69-1.915c-1.305-0.152-2.604,0.26-3.59,1.123c-0.983,0.867-1.554,2.112-1.569,3.417l1.189,5.89l-6.35,2.175l-2.684-5.398
			c-0.806-1.015-2.011-1.642-3.304-1.723c0,0-0.001,0-0.002,0c-1.319-0.081-2.61,0.398-3.552,1.322l-3.311,4.986l-6.027-2.956
			l1.917-5.689c0.151-1.301-0.26-2.604-1.124-3.585v-0.002c-0.866-0.983-2.112-1.552-3.423-1.569l-5.884,1.187l-2.177-6.35
			l5.382-2.667c1.028-0.819,1.661-2.03,1.742-3.337c0.002-0.001,0.002-0.001,0.002-0.001c0.081-1.307-0.395-2.591-1.308-3.522
			l-5.006-3.324l2.956-6.029l5.692,1.918c1.297,0.148,2.601-0.258,3.585-1.125c0,0,0,0-0.001-0.002
			c0.985-0.865,1.555-2.108,1.571-3.419l-1.188-5.886l6.354-2.177l2.665,5.386c0.815,1.022,2.028,1.658,3.335,1.738
			c0,0,0.002,0,0.001,0c1.306,0.086,2.586-0.392,3.523-1.308l3.323-5.002l6.029,2.956l-1.92,5.691
			c-0.149,1.301,0.26,2.603,1.127,3.584c0,0,0,0,0,0.002c0.867,0.982,2.111,1.554,3.419,1.57l5.889-1.19l2.171,6.353L98.408,94.082z
			 M117.834,60.498l3.376,4.969l-5.015,4.461l-4.563-3.94c-1.137-0.624-2.49-0.735-3.714-0.309c0,0-0.002-0.001-0.002,0
			c-1.247,0.435-2.254,1.378-2.766,2.594l-1.121,5.88l-6.703-0.394l-0.432-5.992c-0.366-1.257-1.247-2.297-2.424-2.868h0
			c-1.179-0.572-2.548-0.618-3.763-0.126l-4.967,3.373l-4.464-5.015l3.931-4.544c0.629-1.148,0.747-2.513,0.316-3.747
			c0-0.002,0-0.002,0-0.004c-0.431-1.233-1.366-2.231-2.568-2.74l-5.902-1.126l0.392-6.704l5.993-0.437
			c1.255-0.366,2.298-1.245,2.87-2.42l0,0c0.572-1.184,0.616-2.549,0.125-3.763l-3.375-4.968l5.017-4.467l4.542,3.933
			c1.15,0.63,2.515,0.745,3.752,0.314l0,0c1.236-0.429,2.232-1.364,2.742-2.569l1.128-5.898l6.703,0.393l0.433,5.991
			c0.366,1.256,1.249,2.3,2.424,2.869c0,0,0,0,0,0.001c1.182,0.573,2.549,0.616,3.763,0.125l4.97-3.375l4.459,5.017l-3.929,4.542
			c-0.631,1.15-0.748,2.515-0.315,3.751c0,0,0.002,0.002,0,0.002c0.431,1.233,1.365,2.23,2.569,2.74l5.898,1.129l-0.391,6.702
			l-5.988,0.437c-1.262,0.362-2.302,1.244-2.873,2.42C117.387,57.917,117.343,59.283,117.834,60.498z"/>
	</g>
</g>
</svg>
