<?xml version="1.0" encoding="utf-8"?>
<!-- Generator: Adobe Illustrator 16.0.0, SVG Export Plug-In . SVG Version: 6.00 Build 0)  -->
<!DOCTYPE svg PUBLIC "-//W3C//DTD SVG 1.1//EN" "http://www.w3.org/Graphics/SVG/1.1/DTD/svg11.dtd">
<svg version="1.1" id="Layer_1" xmlns="http://www.w3.org/2000/svg" xmlns:xlink="http://www.w3.org/1999/xlink" x="0px" y="0px"
	 width="240px" height="160px" viewBox="0 0 240 160" enable-background="new 0 0 240 160" xml:space="preserve">
<g>
	<g>
		<g>
			<polygon fill="#FFFFFF" points="199.708,3.174 124.605,156.826 136.622,156.826 211.725,3.174 			"/>
			<polygon fill="#FFFFFF" points="223.805,3.174 148.7,156.826 160.716,156.826 235.822,3.174 			"/>
			<path fill="#FFFFFF" d="M86.723,98.654c-6.911-3.385-15.258-0.534-18.641,6.377c-3.389,6.911-0.53,15.257,6.377,18.645
				c6.909,3.387,15.258,0.53,18.645-6.379C96.489,110.386,93.633,102.042,86.723,98.654z"/>
			<path fill="#FFFFFF" d="M111.5,35.498c-7.684-0.447-14.276,5.411-14.723,13.092c-0.452,7.683,5.414,14.271,13.094,14.724
				c7.681,0.448,14.274-5.413,14.723-13.097C125.043,42.536,119.182,35.943,111.5,35.498z"/>
			<path fill="#FFFFFF" d="M79.28,3.174L4.178,156.826h108.35L187.628,3.174H79.28z M105.814,108.255
				c-1.344,1.064-2.171,2.65-2.276,4.362c-0.001,0,0.001,0.002-0.001,0.002c-0.107,1.704,0.515,3.379,1.712,4.601l6.538,4.347
				l-3.86,7.88l-7.439-2.503c-1.707-0.199-3.406,0.34-4.694,1.468c-1.285,1.134-2.031,2.762-2.052,4.468l1.555,7.7l-8.302,2.843
				l-3.51-7.059c-1.054-1.327-2.628-2.146-4.32-2.252c0,0-0.001,0-0.003,0c-1.725-0.106-3.412,0.521-4.646,1.729l-4.329,6.52
				l-7.879-3.863l2.507-7.438c0.197-1.703-0.34-3.404-1.47-4.688v-0.003c-1.132-1.285-2.76-2.028-4.474-2.051l-7.694,1.55
				l-2.847-8.302l7.037-3.487c1.344-1.07,2.172-2.654,2.277-4.362c0.003-0.002,0.003-0.002,0.003-0.002
				c0.105-1.708-0.516-3.388-1.711-4.604l-6.545-4.347l3.866-7.883l7.443,2.508c1.695,0.194,3.4-0.337,4.688-1.47
				c0,0,0,0-0.002-0.003c1.287-1.132,2.033-2.757,2.056-4.47l-1.554-7.696l8.308-2.845l3.484,7.041
				c1.066,1.337,2.652,2.169,4.361,2.272c0,0,0.004,0,0.001,0c1.709,0.112,3.381-0.512,4.607-1.71l4.344-6.539l7.883,3.863
				l-2.51,7.443c-0.195,1.698,0.339,3.402,1.472,4.685c0,0,0,0,0,0.004c1.135,1.283,2.76,2.03,4.472,2.052l7.698-1.557l2.839,8.306
				L105.814,108.255z M131.214,64.344l4.413,6.497l-6.557,5.833l-5.967-5.151c-1.485-0.816-3.255-0.962-4.856-0.404
				c0,0-0.003-0.001-0.003,0c-1.631,0.568-2.947,1.803-3.616,3.392l-1.466,7.688l-8.762-0.515l-0.565-7.834
				c-0.479-1.644-1.632-3.003-3.17-3.75h-0.001c-1.542-0.749-3.33-0.808-4.918-0.166l-6.495,4.41l-5.837-6.556l5.139-5.942
				c0.823-1.501,0.976-3.285,0.412-4.898c0-0.004,0-0.004,0-0.006c-0.563-1.612-1.785-2.918-3.357-3.582l-7.717-1.473l0.513-8.764
				l7.836-0.572c1.641-0.478,3.004-1.627,3.753-3.165l0,0c0.747-1.547,0.805-3.332,0.163-4.919l-4.412-6.495l6.56-5.841l5.937,5.143
				c1.505,0.823,3.288,0.974,4.906,0.41l0,0c1.617-0.561,2.918-1.783,3.585-3.358l1.475-7.713l8.763,0.514l0.566,7.833
				c0.479,1.643,1.633,3.007,3.171,3.751c0,0,0,0,0,0.002c1.545,0.749,3.331,0.806,4.919,0.163l6.497-4.413l5.831,6.561
				l-5.137,5.938c-0.825,1.503-0.978,3.288-0.412,4.905c0,0,0.003,0.003,0,0.003c0.563,1.614,1.784,2.916,3.36,3.582l7.712,1.476
				l-0.511,8.763l-7.83,0.57c-1.649,0.474-3.009,1.627-3.757,3.166C130.63,60.969,130.569,62.756,131.214,64.344z"/>
		</g>
	</g>
</g>
</svg>
